<svg width="484" height="146" viewBox="0 0 484 146" fill="none" xmlns="http://www.w3.org/2000/svg">
<path d="M19.75 4.8C19.75 3.09999 19.95 1.94999 20.35 1.35C20.85 0.649993 21.7 0.299992 22.9 0.299992C24.2 0.299992 26.4 1.64999 29.5 4.34999C32.6 7.04999 34.25 9.45 34.45 11.55C34.85 15.15 36.75 21.55 40.15 30.75C43.55 39.85 47.45 49.1 51.85 58.5C57.45 51.9 64.5 43.15 73 32.25C81.5 21.25 87.8 13.45 91.9 8.85C96 4.25 98.95 1.95 100.75 1.95C102.55 1.95 104.45 2.95 106.45 4.94999C108.45 6.94999 109.45 8.84999 109.45 10.65C109.45 12.45 109.25 14.5 108.85 16.8C108.45 19.1 107.75 22.15 106.75 25.95C105.85 29.65 105 32.9 104.2 35.7C103.5 38.4 102.3 42.65 100.6 48.45C98.9 54.25 97.6 58.9 96.7 62.4C95.8 65.8 94.75 70 93.55 75C92.35 79.9 91.35 83.95 90.55 87.15C89.85 90.25 89.1 93.3 88.3 96.3C86.8 102.1 85.35 105 83.95 105C82.65 105 81.35 103.8 80.05 101.4C78.75 99 78.1 95.8 78.1 91.8C78.1 87.7 79.8 78.4 83.2 63.9C86.7 49.4 90.45 36.7 94.45 25.8C76.05 48.8 64.7 62.55 60.4 67.05C56.2 71.55 52.7 73.8 49.9 73.8C47.2 73.8 44.65 72.25 42.25 69.15C38.65 63.95 33.8 51.65 27.7 32.25C26 42.75 24.1 51.75 22 59.25C20 66.65 18.65 71.6 17.95 74.1C17.35 76.5 16.8 78.5 16.3 80.1C15.9 81.7 15.4 83.6 14.8 85.8C14.2 87.9 13.65 89.65 13.15 91.05C12.75 92.45 12.3 94 11.8 95.7C11.3 97.3 10.85 98.6 10.45 99.6C10.15 100.6 9.8 101.55 9.4 102.45C8.6 104.15 8 105 7.6 105C6.4 105 4.9 103.7 3.1 101.1C1.3 98.5 0.4 96 0.4 93.6C0.4 91.2 3.6 77.4 10 52.2C16.5 27 19.75 11.2 19.75 4.8ZM174.859 56.25C174.859 61.55 171.959 65.9 166.159 69.3C160.459 72.6 153.959 74.25 146.659 74.25C139.459 74.25 132.909 73.45 127.009 71.85C125.609 76.25 124.909 80.2 124.909 83.7C124.909 87.1 125.959 89.75 128.059 91.65C130.259 93.55 133.809 94.5 138.709 94.5C143.709 94.5 148.809 93.65 154.009 91.95C159.309 90.15 162.209 89.25 162.709 89.25C165.309 89.25 166.609 90.25 166.609 92.25C166.609 94.95 163.559 97.9 157.459 101.1C151.359 104.2 145.409 105.75 139.609 105.75C131.809 105.75 125.459 103.45 120.559 98.85C115.659 94.15 113.209 88.25 113.209 81.15C113.209 74.05 115.109 66.65 118.909 58.95C122.709 51.15 127.609 44.6 133.609 39.3C139.609 34 145.559 31.35 151.459 31.35C157.359 31.35 162.709 34.15 167.509 39.75C172.409 45.35 174.859 50.85 174.859 56.25ZM152.209 43.2C148.509 43.2 144.659 45.15 140.659 49.05C136.659 52.85 133.259 57.6 130.459 63.3C134.459 64.2 139.009 64.65 144.109 64.65C149.209 64.65 153.659 63.85 157.459 62.25C161.259 60.55 163.159 58.35 163.159 55.65C163.159 52.95 161.909 50.2 159.409 47.4C157.009 44.6 154.609 43.2 152.209 43.2ZM242.389 56.25C242.389 61.55 239.489 65.9 233.689 69.3C227.989 72.6 221.489 74.25 214.189 74.25C206.989 74.25 200.439 73.45 194.539 71.85C193.139 76.25 192.439 80.2 192.439 83.7C192.439 87.1 193.489 89.75 195.589 91.65C197.789 93.55 201.339 94.5 206.239 94.5C211.239 94.5 216.339 93.65 221.539 91.95C226.839 90.15 229.739 89.25 230.239 89.25C232.839 89.25 234.139 90.25 234.139 92.25C234.139 94.95 231.089 97.9 224.989 101.1C218.889 104.2 212.939 105.75 207.139 105.75C199.339 105.75 192.989 103.45 188.089 98.85C183.189 94.15 180.739 88.25 180.739 81.15C180.739 74.05 182.639 66.65 186.439 58.95C190.239 51.15 195.139 44.6 201.139 39.3C207.139 34 213.089 31.35 218.989 31.35C224.889 31.35 230.239 34.15 235.039 39.75C239.939 45.35 242.389 50.85 242.389 56.25ZM219.739 43.2C216.039 43.2 212.189 45.15 208.189 49.05C204.189 52.85 200.789 57.6 197.989 63.3C201.989 64.2 206.539 64.65 211.639 64.65C216.739 64.65 221.189 63.85 224.989 62.25C228.789 60.55 230.689 58.35 230.689 55.65C230.689 52.95 229.439 50.2 226.939 47.4C224.539 44.6 222.139 43.2 219.739 43.2ZM266.868 90.75C266.868 92.65 267.968 93.6 270.168 93.6C273.968 93.6 278.568 92.55 283.968 90.45C289.468 88.25 292.518 87.15 293.118 87.15C294.918 87.15 295.818 88.1 295.818 90C295.818 92.9 292.818 96.25 286.818 100.05C280.918 103.85 275.518 105.75 270.618 105.75C265.818 105.75 261.818 104.45 258.618 101.85C255.418 99.15 253.818 96.4 253.818 93.6C253.818 90.8 254.418 87.25 255.618 82.95C256.818 78.55 258.518 72.8 260.718 65.7C263.018 58.5 264.818 52.55 266.118 47.85C261.418 48.95 258.268 49.5 256.668 49.5C255.068 49.5 253.468 48.7 251.868 47.1C250.368 45.4 249.618 43.8 249.618 42.3C249.618 39.9 256.118 37.6 269.118 35.4C270.918 27.1 271.818 19.75 271.818 13.35C271.818 10.35 272.818 8.85 274.818 8.85C276.518 8.85 278.618 9.95 281.118 12.15C283.618 14.25 284.868 16.65 284.868 19.35C284.868 22.05 284.018 26.8 282.318 33.6C288.018 33.1 292.568 32.85 295.968 32.85C301.968 32.85 304.968 34.15 304.968 36.75C304.968 38.25 303.318 39.5 300.018 40.5C296.818 41.5 290.018 43.05 279.618 45.15C277.518 53.05 274.868 62.1 271.668 72.3C268.468 82.4 266.868 88.55 266.868 90.75ZM327.276 10.05C327.276 8.04999 328.076 6.14999 329.676 4.34999C331.276 2.54999 332.876 1.64999 334.476 1.64999C336.176 1.64999 338.176 3.69999 340.476 7.79999C342.776 11.8 343.926 15.15 343.926 17.85C343.926 18.85 343.476 19.75 342.576 20.55C341.676 21.35 340.726 21.75 339.726 21.75C337.326 21.75 334.626 20.3 331.626 17.4C328.726 14.5 327.276 12.05 327.276 10.05ZM326.526 31.35C328.426 31.35 330.226 32.5 331.926 34.8C333.626 37.1 334.476 39.35 334.476 41.55C334.476 43.75 333.026 50.35 330.126 61.35C327.226 72.25 323.576 84.5 319.176 98.1C317.476 103.1 315.326 105.6 312.726 105.6C311.326 105.6 310.126 105.05 309.126 103.95C308.126 102.75 307.626 101.45 307.626 100.05C307.626 98.55 307.976 96.25 308.676 93.15C309.476 89.95 310.576 85.75 311.976 80.55C313.476 75.25 314.626 70.95 315.426 67.65C316.326 64.35 317.226 60.65 318.126 56.55C319.026 52.35 319.726 49 320.226 46.5C320.826 43.9 321.476 41.3 322.176 38.7C323.576 33.8 325.026 31.35 326.526 31.35ZM358.518 79.65C368.118 63.35 375.918 51.25 381.918 43.35C388.018 35.35 392.968 31.35 396.768 31.35C400.668 31.35 404.318 33.4 407.718 37.5C411.218 41.6 412.968 45.95 412.968 50.55C412.968 57.75 411.318 66.55 408.018 76.95C402.018 96.15 396.618 105.75 391.818 105.75C389.618 105.75 388.518 104.25 388.518 101.25C388.518 99.15 389.568 94.9 391.668 88.5C393.868 82 395.868 75.65 397.668 69.45C399.568 63.15 400.518 58.45 400.518 55.35C400.518 52.15 400.018 49.8 399.018 48.3C398.118 46.8 397.168 46.05 396.168 46.05C395.268 46.05 394.318 46.35 393.318 46.95C392.318 47.55 391.168 48.55 389.868 49.95C388.668 51.35 387.518 52.75 386.418 54.15C385.318 55.45 383.918 57.35 382.218 59.85C380.618 62.35 379.268 64.5 378.168 66.3C377.068 68 375.468 70.5 373.368 73.8C371.268 77.1 369.668 79.6 368.568 81.3C367.468 83 366.018 85.3 364.218 88.2C362.418 91.1 360.968 93.35 359.868 94.95C358.868 96.55 357.718 98.3 356.418 100.2C353.918 103.9 351.918 105.75 350.418 105.75C349.018 105.75 347.368 104.65 345.468 102.45C343.568 100.15 342.618 98.15 342.618 96.45C342.618 95.95 342.968 94.6 343.668 92.4C345.568 86.6 347.668 79.45 349.968 70.95C352.268 62.35 353.518 52.6 353.718 41.7C354.018 34.4 355.068 30.75 356.868 30.75C359.068 30.75 361.268 31.9 363.468 34.2C365.668 36.5 366.768 39.05 366.768 41.85C366.768 44.55 365.918 49.85 364.218 57.75C362.618 65.55 360.718 72.85 358.518 79.65ZM483.198 65.25C483.198 69.25 481.448 73.8 477.948 78.9C475.248 85 472.348 93.8 469.248 105.3C466.148 116.7 463.548 124.85 461.448 129.75C457.248 139.95 450.798 145.05 442.098 145.05C434.998 145.05 428.998 143.1 424.098 139.2C419.298 135.4 416.898 131.6 416.898 127.8C416.898 126.2 417.398 124.6 418.398 123C419.298 121.4 420.248 120.6 421.248 120.6C422.348 120.6 423.548 121.35 424.848 122.85C426.148 124.35 427.348 125.95 428.448 127.65C429.648 129.45 431.398 131.1 433.698 132.6C436.098 134.1 438.398 134.85 440.598 134.85C442.798 134.85 444.448 134.5 445.548 133.8C446.648 133.2 447.698 132.15 448.698 130.65C449.698 129.25 450.548 127.8 451.248 126.3C451.948 124.9 452.698 122.85 453.498 120.15C454.398 117.55 455.098 115.3 455.598 113.4C456.098 111.5 456.798 108.85 457.698 105.45C458.598 101.95 459.348 99.15 459.948 97.05C452.148 102.85 445.798 105.75 440.898 105.75C435.998 105.75 431.748 103.8 428.148 99.9C424.548 95.9 422.748 91.3 422.748 86.1C422.748 80.8 424.698 73.8 428.598 65.1C432.598 56.4 437.948 48.6 444.648 41.7C451.348 34.8 457.898 31.35 464.298 31.35C468.398 31.35 471.848 32.9 474.648 36C479.248 41.1 481.548 48.35 481.548 57.75C481.548 58.95 481.498 59.8 481.398 60.3C482.598 62 483.198 63.65 483.198 65.25ZM434.898 87.6C434.898 89.3 435.448 90.7 436.548 91.8C437.648 92.8 439.048 93.3 440.748 93.3C445.748 93.3 451.648 90.35 458.448 84.45C465.248 78.45 470.048 71.5 472.848 63.6C472.448 62.3 472.098 60.3 471.798 57.6C471.498 54.9 471.198 52.75 470.898 51.15C470.598 49.55 469.948 47.95 468.948 46.35C467.948 44.65 466.648 43.8 465.048 43.8C461.148 43.8 456.748 46.6 451.848 52.2C446.948 57.8 442.898 64.05 439.698 70.95C436.498 77.85 434.898 83.4 434.898 87.6Z" fill="#4CB5F5"/>
</svg>
